<svg width="11" height="8" viewBox="0 0 11 8" fill="currentColor" xmlns="http://www.w3.org/2000/svg">
    <path
        d="M5.50024 7.85059C5.43579 7.85059 5.37134 7.83626 5.30688 7.80762C5.24959 7.77897 5.19588 7.73958 5.14575 7.68945L0.107666 1.73828C0.02889 1.63802 -0.00691732 1.52702 0.000244141 1.40527C0.0145671 1.27637 0.068278 1.16895 0.161377 1.08301C0.261637 1.00423 0.37264 0.972005 0.494385 0.986328C0.623291 0.99349 0.727132 1.04362 0.805908 1.13672L5.50024 6.69043L10.1946 1.13672C10.2734 1.04362 10.3736 0.99349 10.4954 0.986328C10.6243 0.972005 10.7389 1.00423 10.8391 1.08301C10.9322 1.16895 10.9823 1.27637 10.9895 1.40527C11.0038 1.52702 10.9716 1.63802 10.8928 1.73828L5.85474 7.68945C5.81177 7.73958 5.75806 7.77897 5.6936 7.80762C5.62915 7.83626 5.5647 7.85059 5.50024 7.85059Z" />
</svg>