<svg width="14" height="21" viewBox="0 0 14 21" fill="none" xmlns="http://www.w3.org/2000/svg">
  <path
    d="M12.4102 20.6602C12.319 20.6602 12.2279 20.6406 12.1367 20.6016C12.0456 20.5755 11.9609 20.5299 11.8828 20.4648L1.04297 11.3047C0.951823 11.2266 0.880208 11.1354 0.828125 11.0312C0.776042 10.9141 0.75 10.7904 0.75 10.6602C0.75 10.543 0.776042 10.4323 0.828125 10.3281C0.880208 10.2109 0.951823 10.1133 1.04297 10.0352L11.8828 0.855469C12.0521 0.71224 12.2474 0.653646 12.4688 0.679688C12.7031 0.692708 12.8984 0.783854 13.0547 0.953125C13.1979 1.13542 13.2565 1.34375 13.2305 1.57812C13.2174 1.79948 13.1263 1.98828 12.957 2.14453L2.87891 10.6602L12.957 19.1953C13.1263 19.3385 13.2174 19.5273 13.2305 19.7617C13.2565 19.9961 13.1979 20.1979 13.0547 20.3672C12.9766 20.4714 12.8789 20.543 12.7617 20.582C12.6445 20.6341 12.5273 20.6602 12.4102 20.6602Z"
    fill="#00677F" />
</svg>