<svg width="16" height="18" viewBox="0 0 16 18" fill="currentColor" xmlns="http://www.w3.org/2000/svg">
<path d="M15.2389 4.60417L15.2482 4.59495L11.8199 1.16672L10.8431 2.14358L12.7876 4.08809C11.9213 4.41985 11.3039 5.24927 11.3039 6.23534C11.3039 7.50711 12.336 8.53927 13.6078 8.53927C13.9395 8.53927 14.2437 8.46554 14.5293 8.34574V14.9902C14.5293 15.4971 14.1146 15.9118 13.6078 15.9118C13.1009 15.9118 12.6862 15.4971 12.6862 14.9902V10.8432C12.6862 9.82946 11.8568 9.00005 10.8431 9.00005H9.9215V2.54907C9.9215 1.53534 9.09209 0.705933 8.07836 0.705933H2.54895C1.53522 0.705933 0.705811 1.53534 0.705811 2.54907V17.2942H9.9215V10.3824H11.3039V14.9902C11.3039 16.262 12.336 17.2942 13.6078 17.2942C14.8795 17.2942 15.9117 16.262 15.9117 14.9902V6.23534C15.9117 5.59946 15.6537 5.01887 15.2389 4.60417ZM8.07836 7.15691H2.54895V2.54907H8.07836V7.15691ZM13.6078 7.15691C13.1009 7.15691 12.6862 6.74221 12.6862 6.23534C12.6862 5.72848 13.1009 5.31378 13.6078 5.31378C14.1146 5.31378 14.5293 5.72848 14.5293 6.23534C14.5293 6.74221 14.1146 7.15691 13.6078 7.15691Z" />
</svg>
