<svg width="15" height="16" viewBox="0 0 15 16" xmlns="http://www.w3.org/2000/svg" fill="currentColor">
    <path
        d="M9.66797 4.6875H5.34668C5.1416 5.19531 4.98535 5.70801 4.87793 6.22559C4.77051 6.74316 4.70703 7.27051 4.6875 7.80762H10.3125C10.3027 7.27051 10.2441 6.74316 10.1367 6.22559C10.0293 5.70801 9.87305 5.19531 9.66797 4.6875ZM4.10156 8.4375H0.0146484C0.0244141 8.99414 0.0878906 9.53613 0.205078 10.0635C0.332031 10.5908 0.507812 11.0889 0.732422 11.5576H4.67285C4.49707 11.04 4.36035 10.5225 4.2627 10.0049C4.1748 9.47754 4.12109 8.95508 4.10156 8.4375ZM7.5 15.5127L7.55859 15.4248C7.96875 14.8877 8.33008 14.3506 8.64258 13.8135C8.95508 13.2666 9.22363 12.7246 9.44824 12.1875H5.55176C5.78613 12.7246 6.05957 13.2666 6.37207 13.8135C6.68457 14.3506 7.04102 14.8877 7.44141 15.4248L7.5 15.5127ZM10.3125 8.4375H4.6875C4.70703 8.95508 4.76562 9.47266 4.86328 9.99023C4.9707 10.5078 5.12207 11.0303 5.31738 11.5576H9.69727C9.88281 11.0303 10.0244 10.5078 10.1221 9.99023C10.2295 9.47266 10.293 8.95508 10.3125 8.4375ZM10.3125 4.6875C10.498 5.19531 10.6396 5.71289 10.7373 6.24023C10.835 6.75781 10.8936 7.28027 10.9131 7.80762H14.9707C14.9219 7.24121 14.8145 6.69922 14.6484 6.18164C14.4824 5.6543 14.2627 5.15625 13.9893 4.6875H10.3125ZM0.922852 4.6875C0.668945 5.15625 0.463867 5.6543 0.307617 6.18164C0.151367 6.69922 0.0585938 7.24121 0.0292969 7.80762H4.10156C4.11133 7.28027 4.16504 6.75781 4.2627 6.24023C4.37012 5.71289 4.5166 5.19531 4.70215 4.6875H0.922852ZM10.3271 11.5576H14.2969C14.5215 11.0889 14.6924 10.5908 14.8096 10.0635C14.9365 9.53613 15 8.99414 15 8.4375H10.9131C10.8936 8.95508 10.835 9.47754 10.7373 10.0049C10.6396 10.5225 10.5029 11.04 10.3271 11.5576ZM6.94336 15.8057C6.49414 15.21 6.09863 14.6094 5.75684 14.0039C5.4248 13.3984 5.13672 12.793 4.89258 12.1875H1.05469C1.36719 12.7148 1.7334 13.1982 2.15332 13.6377C2.57324 14.0771 3.03711 14.458 3.54492 14.7803C4.0625 15.1025 4.60938 15.3613 5.18555 15.5566C5.77148 15.752 6.38184 15.8691 7.0166 15.9082L6.94336 15.8057ZM10.1074 12.1875C9.87305 12.793 9.58496 13.3984 9.24316 14.0039C8.90137 14.6094 8.51074 15.21 8.07129 15.8057L7.9834 15.9082C8.62793 15.8691 9.24316 15.752 9.8291 15.5566C10.415 15.3613 10.9619 15.1025 11.4697 14.7803C11.9873 14.4482 12.4561 14.0674 12.876 13.6377C13.3057 13.1982 13.6719 12.7148 13.9746 12.1875H10.1074ZM4.95117 4.05762C5.19531 3.53027 5.4834 3.01758 5.81543 2.51953C6.14746 2.01172 6.52832 1.51855 6.95801 1.04004L7.0459 0.952148C6.44043 0.991211 5.85938 1.09375 5.30273 1.25977C4.74609 1.41602 4.22363 1.63086 3.73535 1.9043C3.25684 2.16797 2.8125 2.48535 2.40234 2.85645C1.99219 3.21777 1.63086 3.61816 1.31836 4.05762H4.95117ZM8.04199 1.04004C8.48145 1.51855 8.86719 2.01172 9.19922 2.51953C9.53125 3.01758 9.81445 3.53027 10.0488 4.05762H13.5938C13.2715 3.61816 12.9053 3.21777 12.4951 2.85645C12.085 2.48535 11.6406 2.16797 11.1621 1.9043C10.6836 1.63086 10.1758 1.41602 9.63867 1.25977C9.10156 1.09375 8.54492 0.996094 7.96875 0.966797L8.04199 1.04004ZM7.5 1.37695L7.42676 1.46484C7.0459 1.875 6.7041 2.2998 6.40137 2.73926C6.1084 3.16895 5.84961 3.6084 5.625 4.05762H9.375C9.15039 3.6084 8.8916 3.16895 8.59863 2.73926C8.30566 2.2998 7.96875 1.875 7.58789 1.46484L7.5 1.37695Z" />
</svg>