<svg width="21" height="20" viewBox="0 0 21 20" fill="none" xmlns="http://www.w3.org/2000/svg">
<path d="M17.7969 5.38281C17.8359 5.42188 17.8815 5.45443 17.9336 5.48047C17.9857 5.49349 18.0378 5.5 18.0898 5.5C18.194 5.5 18.2852 5.46094 18.3633 5.38281C18.4544 5.29167 18.5 5.19401 18.5 5.08984V1.33984C18.5 1.22266 18.4544 1.125 18.3633 1.04688C18.2852 0.955729 18.194 0.910156 18.0898 0.910156H14.3398C14.2487 0.910156 14.1641 0.936198 14.0859 0.988281C14.0208 1.04036 13.9753 1.10547 13.9492 1.18359C13.9102 1.26172 13.8971 1.33984 13.9102 1.41797C13.9362 1.49609 13.9818 1.56771 14.0469 1.63281L17.7969 5.38281ZM3.5 9.75781V19.25H9.33984V13.4102H12.6602V19.25H18.5V9.75781L11 2.25781L3.5 9.75781ZM20.8828 9.79688L11.293 0.207031C11.2148 0.128906 11.1172 0.0898438 11 0.0898438C10.8828 0.0898438 10.7852 0.128906 10.707 0.207031L1.11719 9.79688C1.03906 9.86198 1 9.95312 1 10.0703C0.986979 10.1745 1.02604 10.2721 1.11719 10.3633C1.20833 10.4544 1.30599 10.5 1.41016 10.5C1.52734 10.487 1.625 10.4479 1.70312 10.3828L11 1.08594L20.2969 10.3828C20.375 10.4609 20.4661 10.5 20.5703 10.5C20.6875 10.5 20.7852 10.4609 20.8633 10.3828C20.8763 10.3828 20.8828 10.3828 20.8828 10.3828C20.9609 10.3047 21 10.2135 21 10.1094C21 9.99219 20.9609 9.88802 20.8828 9.79688Z" fill="#00677F"/>
</svg>
