<svg width="16" height="16" viewBox="0 0 16 16" fill="currentColor" xmlns="http://www.w3.org/2000/svg">
<path d="M5.5 0.9375C4.80664 0.9375 4.15723 1.06934 3.55176 1.33301C2.94629 1.59668 2.41406 1.95801 1.95508 2.41699C1.50586 2.86621 1.14941 3.39355 0.885742 3.99902C0.631836 4.60449 0.504883 5.25391 0.504883 5.94727C0.504883 6.60156 0.739258 7.4707 1.20801 8.55469C1.68652 9.63867 2.21387 10.708 2.79004 11.7627C3.37598 12.8076 3.91797 13.7256 4.41602 14.5166C4.91406 15.2979 5.1875 15.7275 5.23633 15.8057C5.26562 15.8447 5.30469 15.874 5.35352 15.8936C5.40234 15.9229 5.45117 15.9375 5.5 15.9375C5.54883 15.9375 5.59766 15.9229 5.64648 15.8936C5.69531 15.874 5.73438 15.8447 5.76367 15.8057C5.8125 15.7275 6.08594 15.2979 6.58398 14.5166C7.08203 13.7256 7.61914 12.8076 8.19531 11.7627C8.78125 10.708 9.30859 9.63867 9.77734 8.55469C10.2559 7.4707 10.4951 6.60156 10.4951 5.94727C10.4951 5.25391 10.3633 4.60449 10.0996 3.99902C9.8457 3.39355 9.48926 2.86621 9.03027 2.41699C8.58105 1.95801 8.05371 1.59668 7.44824 1.33301C6.84277 1.06934 6.19336 0.9375 5.5 0.9375ZM5.5 8.12988C4.89453 8.12988 4.37695 7.91504 3.94727 7.48535C3.52734 7.05566 3.31738 6.54297 3.31738 5.94727C3.31738 5.3418 3.52734 4.82422 3.94727 4.39453C4.37695 3.96484 4.89453 3.75 5.5 3.75C6.10547 3.75 6.61816 3.96484 7.03809 4.39453C7.46777 4.82422 7.68262 5.3418 7.68262 5.94727C7.68262 6.54297 7.46777 7.05566 7.03809 7.48535C6.61816 7.91504 6.10547 8.12988 5.5 8.12988Z" />
</svg>
