<svg width="4" height="14" viewBox="0 0 4 14" fill="currentColor" xmlns="http://www.w3.org/2000/svg">
<path d="M2.125 3.5C1.64193 3.5 1.22721 3.32682 0.880859 2.98047C0.54362 2.64323 0.375 2.23307 0.375 1.75C0.375 1.26693 0.54362 0.852213 0.880859 0.505859C1.22721 0.168619 1.64193 -3.21632e-07 2.125 -3.00516e-07C2.60807 -2.794e-07 3.01823 0.16862 3.35547 0.505859C3.70182 0.852213 3.875 1.26693 3.875 1.75C3.875 2.23307 3.70182 2.64323 3.35547 2.98047C3.01823 3.32682 2.60807 3.5 2.125 3.5ZM2.125 8.75C1.64193 8.75 1.22721 8.57682 0.880859 8.23047C0.543619 7.89323 0.375 7.48307 0.375 7C0.375 6.51693 0.54362 6.10221 0.880859 5.75586C1.22721 5.41862 1.64193 5.25 2.125 5.25C2.60807 5.25 3.01823 5.41862 3.35547 5.75586C3.70182 6.10221 3.875 6.51693 3.875 7C3.875 7.48307 3.70182 7.89323 3.35547 8.23047C3.01823 8.57682 2.60807 8.75 2.125 8.75ZM2.125 14C1.64193 14 1.22721 13.8268 0.880859 13.4805C0.543619 13.1432 0.374999 12.7331 0.374999 12.25C0.374999 11.7669 0.543619 11.3522 0.880859 11.0059C1.22721 10.6686 1.64193 10.5 2.125 10.5C2.60807 10.5 3.01823 10.6686 3.35547 11.0059C3.70182 11.3522 3.875 11.7669 3.875 12.25C3.875 12.7331 3.70182 13.1432 3.35547 13.4805C3.01823 13.8268 2.60807 14 2.125 14Z" />
</svg>
