<svg width="18" height="14" viewBox="0 0 18 14" fill="currentColor" xmlns="http://www.w3.org/2000/svg">
<path d="M17.9648 7.72266C17.9648 8.27344 17.9531 8.84766 17.9297 9.44531C17.9062 10.0312 17.8652 10.6289 17.8066 11.2383C17.8066 11.4961 17.8008 11.6777 17.7891 11.7832C17.7773 11.8887 17.7715 11.959 17.7715 11.9941V13.1543C17.7715 13.248 17.7363 13.3301 17.666 13.4004C17.5957 13.4707 17.5078 13.5059 17.4023 13.5059H15.8203C15.7266 13.5059 15.6387 13.4707 15.5566 13.4004C15.4746 13.3301 15.4336 13.248 15.4336 13.1543V12.0293H13.377L12.5684 10.8516C12.5098 10.7695 12.457 10.7051 12.4102 10.6582C12.375 10.5996 12.3223 10.5703 12.252 10.5703C12.1582 10.5352 11.8359 10.5059 11.2852 10.4824C10.7344 10.459 9.96094 10.4473 8.96484 10.4473C8.46094 10.4473 8.00977 10.4531 7.61133 10.4648C7.21289 10.4648 6.87305 10.4766 6.5918 10.5C6.32227 10.5117 6.10547 10.5234 5.94141 10.5352C5.78906 10.5352 5.68945 10.5469 5.64258 10.5703C5.60742 10.5938 5.56641 10.6289 5.51953 10.6758C5.47266 10.7109 5.41992 10.7695 5.36133 10.8516L4.57031 12.0293H2.44336V13.1543C2.44336 13.248 2.4082 13.3301 2.33789 13.4004C2.26758 13.4707 2.19727 13.5059 2.12695 13.5059H0.544922C0.439453 13.5059 0.345703 13.4707 0.263672 13.4004C0.181641 13.3301 0.140625 13.248 0.140625 13.1543V11.7305C0.117188 11.543 0.0996094 11.3086 0.0878906 11.0273C0.0761719 10.7461 0.0703125 10.4121 0.0703125 10.0254C0.046875 9.62695 0.0292969 9.24609 0.0175781 8.88281C0.0175781 8.51953 0.0175781 8.17383 0.0175781 7.8457V7.37109C0.0175781 7.23047 0.0234375 7.13086 0.0351562 7.07227C0.0585938 7.00195 0.0703125 6.95508 0.0703125 6.93164C0.0820312 6.82617 0.128906 6.69727 0.210938 6.54492C0.292969 6.39258 0.416016 6.2168 0.580078 6.01758L1.01953 5.45508C1.03125 5.41992 1.04883 5.38477 1.07227 5.34961C1.0957 5.31445 1.11328 5.28516 1.125 5.26172C1.17188 5.17969 1.23047 5.08594 1.30078 4.98047C1.38281 4.875 1.44727 4.78711 1.49414 4.7168C1.29492 4.7168 1.13086 4.70508 1.00195 4.68164C0.873047 4.6582 0.808594 4.61719 0.808594 4.55859C0.808594 4.11328 0.908203 3.83203 1.10742 3.71484C1.30664 3.59766 1.68164 3.52148 2.23242 3.48633C3.0293 2.23242 3.58594 1.48242 3.90234 1.23633C4.23047 0.990234 4.48242 0.867188 4.6582 0.867188L5.73047 0.796875C6.45703 0.773437 7.07812 0.755859 7.59375 0.744141C8.12109 0.720703 8.54297 0.708984 8.85938 0.708984C9.17578 0.708984 9.60352 0.720703 10.1426 0.744141C10.6816 0.755859 11.332 0.773437 12.0938 0.796875L13.2891 0.867188C13.3945 0.867188 13.5117 0.908203 13.6406 0.990234C13.7812 1.07227 13.9277 1.18945 14.0801 1.3418C14.2559 1.50586 14.4727 1.76953 14.7305 2.13281C15 2.48438 15.3105 2.93555 15.6621 3.48633C16.1777 3.52148 16.5527 3.59766 16.7871 3.71484C17.0215 3.82031 17.1387 4.10156 17.1387 4.55859C17.1387 4.61719 17.0918 4.6582 16.998 4.68164C16.916 4.70508 16.7344 4.7168 16.4531 4.7168C16.4766 4.75195 16.5176 4.81641 16.5762 4.91016C16.6348 5.00391 16.6992 5.12109 16.7695 5.26172L16.9277 5.45508L17.3672 6.01758C17.5312 6.24023 17.6543 6.42188 17.7363 6.5625C17.8184 6.70312 17.8652 6.82617 17.877 6.93164C17.9004 7.02539 17.918 7.14258 17.9297 7.2832C17.9531 7.41211 17.9648 7.55859 17.9648 7.72266ZM3.70898 7.08984L2.35547 6.29883C2.34375 6.29883 2.32617 6.29883 2.30273 6.29883C2.29102 6.28711 2.28516 6.27539 2.28516 6.26367C2.23828 6.24023 2.19727 6.22852 2.16211 6.22852C2.12695 6.2168 2.09766 6.21094 2.07422 6.21094C1.78125 6.21094 1.58789 6.28711 1.49414 6.43945C1.41211 6.5918 1.37109 6.79688 1.37109 7.05469C1.37109 7.52344 1.40625 7.81641 1.47656 7.93359C1.55859 8.03906 1.68164 8.09766 1.8457 8.10938L4.06055 8.51367L3.70898 7.08984ZM16.6113 7.47656L16.5762 7.05469V6.84375C16.5762 6.77344 16.5059 6.66211 16.3652 6.50977C16.2246 6.3457 16.0605 6.26367 15.873 6.26367C15.8496 6.26367 15.8203 6.26953 15.7852 6.28125C15.75 6.29297 15.709 6.29883 15.6621 6.29883C15.6504 6.31055 15.6387 6.32227 15.627 6.33398C15.6152 6.33398 15.6035 6.33398 15.5918 6.33398L14.2383 7.125L13.9219 8.58398L16.1367 8.19727L16.3477 8.10938C16.418 8.07422 16.4766 8.03906 16.5234 8.00391C16.5703 7.95703 16.5996 7.9043 16.6113 7.8457V7.47656ZM9.5625 7.44141H13.6934C13.6934 7.40625 13.6816 7.36523 13.6582 7.31836C13.6348 7.27148 13.5938 7.21875 13.5352 7.16016L13.377 7.08984L8.98242 6.80859L4.57031 7.08984C4.55859 7.08984 4.54102 7.0957 4.51758 7.10742C4.49414 7.11914 4.47656 7.125 4.46484 7.125C4.41797 7.14844 4.38281 7.18359 4.35938 7.23047C4.33594 7.26562 4.31836 7.3125 4.30664 7.37109V7.40625H8.33203C8.29688 7.44141 8.26172 7.48828 8.22656 7.54688C8.19141 7.60547 8.16211 7.67578 8.13867 7.75781H4.3418L4.46484 8.10938L8.17383 8.35547C8.2207 8.41406 8.26172 8.47266 8.29688 8.53125C8.34375 8.58984 8.39648 8.64844 8.45508 8.70703L4.62305 8.47852C4.6582 8.53711 4.69922 8.58984 4.74609 8.63672C4.80469 8.67188 4.85156 8.71289 4.88672 8.75977C4.96875 8.79492 5.17383 8.8418 5.50195 8.90039C5.8418 8.95898 6.29883 9.01758 6.87305 9.07617C7.44727 9.13477 7.91016 9.17578 8.26172 9.19922C8.61328 9.22266 8.83594 9.23438 8.92969 9.23438C9.03516 9.23438 9.25781 9.2168 9.59766 9.18164C9.94922 9.13477 10.4121 9.08203 10.9863 9.02344C11.5605 8.96484 12.0117 8.91211 12.3398 8.86523C12.6797 8.80664 12.8906 8.75391 12.9727 8.70703C13.0312 8.67188 13.084 8.63672 13.1309 8.60156C13.1777 8.55469 13.2305 8.50195 13.2891 8.44336L9.45703 8.67188C9.51562 8.63672 9.5625 8.58984 9.59766 8.53125C9.64453 8.46094 9.68555 8.39062 9.7207 8.32031L13.4473 8.07422C13.4473 8.07422 13.459 8.04492 13.4824 7.98633C13.5059 7.92773 13.5352 7.83984 13.5703 7.72266H9.7207C9.74414 7.6875 9.73828 7.64062 9.70312 7.58203C9.66797 7.52344 9.62109 7.47656 9.5625 7.44141ZM11.7773 11.3262L11.8652 11.4492L12.498 12.3984H5.41406L6.08203 11.4492L6.16992 11.3262C6.20508 11.291 6.24023 11.2676 6.27539 11.2559C6.31055 11.2324 6.33984 11.2031 6.36328 11.168H11.5488C11.584 11.2031 11.6191 11.2324 11.6543 11.2559C11.7012 11.2793 11.7422 11.3027 11.7773 11.3262Z" />
</svg>
