<svg xmlns="http://www.w3.org/2000/svg" width="15" height="16" viewBox="0 0 15 16" fill="currentColor">
<path xmlns="http://www.w3.org/2000/svg" d="M8.37891 7.74512L14.8242 1.31445C14.9414 1.19727 15 1.05078 15 0.875C15 0.699219 14.9414 0.552734 14.8242 0.435547C14.6973 0.308594 14.5459 0.245117 14.3701 0.245117C14.2041 0.245117 14.0576 0.308594 13.9307 0.435547L7.5 6.86621L1.06934 0.435547C0.942383 0.308594 0.791016 0.245117 0.615234 0.245117C0.449219 0.245117 0.307617 0.308594 0.19043 0.435547C0.0634766 0.552734 0 0.699219 0 0.875C0 1.05078 0.0634766 1.19727 0.19043 1.31445L6.62109 7.74512L0.19043 14.1904C0.0634766 14.3076 0 14.4492 0 14.6152C0 14.791 0.0634766 14.9424 0.19043 15.0693C0.249023 15.1279 0.317383 15.1719 0.395508 15.2012C0.473633 15.2305 0.551758 15.2451 0.629883 15.2451C0.708008 15.2451 0.786133 15.2305 0.864258 15.2012C0.942383 15.1719 1.01074 15.1279 1.06934 15.0693L7.5 8.63867L13.9307 15.0693C13.9893 15.1279 14.0576 15.1719 14.1357 15.2012C14.2139 15.2305 14.292 15.2451 14.3701 15.2451C14.458 15.2451 14.5361 15.2305 14.6045 15.2012C14.6826 15.1719 14.7559 15.1279 14.8242 15.0693C14.9414 14.9424 15 14.791 15 14.6152C15 14.4492 14.9414 14.3076 14.8242 14.1904L8.37891 7.74512Z" />
</svg>
