<svg width="19" height="26" viewBox="0 0 19 26" fill="currentColor" xmlns="http://www.w3.org/2000/svg">
<path d="M0.125 25.5625H18.875V9.9375H15.75V6.8125C15.75 5.94987 15.5872 5.14421 15.2617 4.39551C14.9362 3.63053 14.4886 2.96322 13.9189 2.39355C13.3493 1.82389 12.682 1.3763 11.917 1.05078C11.1683 0.72526 10.3626 0.5625 9.5 0.5625C8.63737 0.5625 7.82357 0.72526 7.05859 1.05078C6.3099 1.3763 5.65072 1.82389 5.08105 2.39355C4.51139 2.96322 4.0638 3.63053 3.73828 4.39551C3.41276 5.14421 3.25 5.94987 3.25 6.8125V9.9375H0.125V25.5625ZM8.4502 16.1875C8.4502 15.8945 8.54785 15.6504 8.74316 15.4551C8.95475 15.2435 9.20703 15.1377 9.5 15.1377C9.79297 15.1377 10.0371 15.2435 10.2324 15.4551C10.444 15.6504 10.5498 15.8945 10.5498 16.1875C10.5498 16.3828 10.501 16.5618 10.4033 16.7246C10.3057 16.8711 10.1755 16.9932 10.0127 17.0908V19.8252C10.0127 19.9717 9.96387 20.1019 9.86621 20.2158C9.76855 20.3135 9.64648 20.3623 9.5 20.3623C9.35352 20.3623 9.23145 20.3135 9.13379 20.2158C9.03613 20.1019 8.9873 19.9717 8.9873 19.8252V17.0908C8.82454 16.9932 8.69434 16.8711 8.59668 16.7246C8.49902 16.5618 8.4502 16.3828 8.4502 16.1875ZM4.2998 6.8125C4.2998 6.09635 4.43001 5.4209 4.69043 4.78613C4.96712 4.15137 5.34147 3.59798 5.81348 3.12598C6.28548 2.65397 6.83887 2.28776 7.47363 2.02734C8.1084 1.75065 8.78385 1.6123 9.5 1.6123C10.2161 1.6123 10.8916 1.75065 11.5264 2.02734C12.1611 2.28776 12.7145 2.65397 13.1865 3.12598C13.6585 3.59798 14.0247 4.15137 14.2852 4.78613C14.5618 5.4209 14.7002 6.09635 14.7002 6.8125V9.9375H4.2998V6.8125Z" />
</svg>
