<svg width="14" height="14" viewBox="0 0 14 14" fill="currentColor" xmlns="http://www.w3.org/2000/svg">
<path d="M12.873 6.33789L0.40625 0.117188C0.363932 0.0917969 0.317383 0.0833333 0.266602 0.0917969C0.224284 0.0917969 0.181966 0.104492 0.139648 0.129883C0.105794 0.14681 0.0761719 0.176432 0.0507812 0.21875C0.0253906 0.261068 0.0126953 0.307617 0.0126953 0.358398V12.8125C0.0126953 12.8633 0.0253906 12.9056 0.0507812 12.9395C0.0761719 12.9818 0.105794 13.0156 0.139648 13.041C0.165039 13.0579 0.19043 13.0664 0.21582 13.0664C0.241211 13.0749 0.266602 13.0791 0.291992 13.0791C0.308919 13.0791 0.325846 13.0749 0.342773 13.0664C0.368164 13.0664 0.389323 13.0622 0.40625 13.0537L12.873 6.82031C12.9154 6.80339 12.9492 6.77376 12.9746 6.73145C13 6.68066 13.0127 6.62988 13.0127 6.5791C13.0127 6.52832 13 6.48177 12.9746 6.43945C12.9492 6.39714 12.9154 6.36328 12.873 6.33789Z" />
</svg>
