<svg width="22" height="16" viewBox="0 0 22 16" fill="currentColor" xmlns="http://www.w3.org/2000/svg">
<path d="M4.99951 7.99902L7.99951 7.99902L3.99951 3.99903L-0.000488186 7.99902L2.99951 7.99902C2.99951 12.419 6.57951 15.999 10.9995 15.999C12.5695 15.999 14.0295 15.539 15.2595 14.759L13.7995 13.299C12.9695 13.749 12.0095 13.999 10.9995 13.999C7.68951 13.999 4.99951 11.309 4.99951 7.99902ZM6.73951 1.23903L8.19951 2.69903C9.03951 2.25903 9.98951 1.99903 10.9995 1.99903C14.3095 1.99903 16.9995 4.68903 16.9995 7.99902L13.9995 7.99902L17.9995 11.999L21.9995 7.99902L18.9995 7.99902C18.9995 3.57903 15.4195 -0.000974471 10.9995 -0.000974524C9.42951 -0.000974543 7.96951 0.459025 6.73951 1.23903Z" />
</svg>
