<svg width="17" height="17" viewBox="0 0 17 17" fill="currentColor" xmlns="http://www.w3.org/2000/svg">
    <path
        d="M16.0156 14.6406L11.8438 10.4688C12.1667 9.96875 12.4115 9.38542 12.5781 8.71875C12.7552 8.04167 12.8438 7.38542 12.8438 6.75C12.8438 5.86458 12.6719 5.03646 12.3281 4.26562C11.9948 3.48438 11.5365 2.80208 10.9531 2.21875C10.3802 1.63542 9.70312 1.17708 8.92188 0.84375C8.14062 0.5 7.30729 0.328125 6.42188 0.328125C5.53646 0.328125 4.70312 0.5 3.92188 0.84375C3.14062 1.17708 2.45833 1.63542 1.875 2.21875C1.30208 2.80208 0.84375 3.48438 0.5 4.26562C0.166667 5.03646 0 5.86458 0 6.75C0 7.63542 0.166667 8.46875 0.5 9.25C0.84375 10.0312 1.30208 10.7135 1.875 11.2969C2.45833 11.8802 3.14062 12.3385 3.92188 12.6719C4.70312 13.0052 5.53646 13.1719 6.42188 13.1719C7.02604 13.1719 7.67188 13.0729 8.35938 12.875C9.05729 12.6667 9.64583 12.4219 10.125 12.1406L14.3281 16.3281L16.0156 14.6406ZM1.84375 6.75C1.84375 6.125 1.96354 5.53646 2.20312 4.98438C2.44271 4.42188 2.77083 3.93229 3.1875 3.51562C3.60417 3.09896 4.08854 2.77083 4.64062 2.53125C5.19271 2.29167 5.78646 2.17188 6.42188 2.17188C7.05729 2.17188 7.65104 2.29167 8.20312 2.53125C8.75521 2.77083 9.23958 3.09896 9.65625 3.51562C10.0729 3.93229 10.401 4.42188 10.6406 4.98438C10.8802 5.53646 11 6.125 11 6.75C11 7.38542 10.8802 7.98438 10.6406 8.54688C10.401 9.09896 10.0729 9.58333 9.65625 10C9.23958 10.4062 8.75521 10.7344 8.20312 10.9844C7.65104 11.224 7.05729 11.3438 6.42188 11.3438C5.78646 11.3438 5.19271 11.224 4.64062 10.9844C4.08854 10.7344 3.60417 10.4062 3.1875 10C2.77083 9.58333 2.44271 9.09896 2.20312 8.54688C1.96354 7.98438 1.84375 7.38542 1.84375 6.75Z"
         />
</svg>