<svg width="20" height="21" viewBox="0 0 20 21" xmlns="http://www.w3.org/2000/svg">
    <path
        d="M19.1211 16.2266C18.9648 15.9271 18.724 15.6471 18.3984 15.3867C18.0729 15.1263 17.6693 14.8789 17.1875 14.6445C16.7057 14.4102 16.1523 14.1758 15.5273 13.9414C14.9154 13.694 14.2513 13.4401 13.5352 13.1797C13.3659 13.1146 13.1901 13.056 13.0078 13.0039C12.8385 12.9388 12.6693 12.8672 12.5 12.7891V10.7969C12.6823 10.6406 12.9232 10.3607 13.2227 9.95703C13.5221 9.54036 13.6979 9.00651 13.75 8.35547C13.8411 8.26432 13.9193 8.15365 13.9844 8.02344C14.0625 7.89323 14.1211 7.73047 14.1602 7.53516C14.2383 7.2487 14.2513 6.94922 14.1992 6.63672C14.1471 6.3112 14.0234 6.05078 13.8281 5.85547C13.8281 5.81641 13.8346 5.78385 13.8477 5.75781C13.8607 5.71875 13.8737 5.6862 13.8867 5.66016C14.056 5.25651 14.2383 4.72266 14.4336 4.05859C14.6419 3.39453 14.6875 2.76302 14.5703 2.16406C14.4271 1.44792 13.9323 0.946615 13.0859 0.660156C12.2396 0.360677 11.3997 0.210938 10.5664 0.210938C9.92839 0.210938 9.27083 0.302083 8.59375 0.484375C7.91667 0.666667 7.45443 0.985677 7.20703 1.44141C6.95964 1.46745 6.73828 1.53255 6.54297 1.63672C6.36068 1.74089 6.20443 1.8776 6.07422 2.04688C5.70964 2.54167 5.59245 3.16016 5.72266 3.90234C5.86589 4.63151 6.00911 5.23047 6.15234 5.69922C6.16536 5.71224 6.17188 5.73177 6.17188 5.75781C6.1849 5.78385 6.19141 5.8099 6.19141 5.83594C5.98307 6.04427 5.85286 6.3112 5.80078 6.63672C5.7487 6.94922 5.76172 7.25521 5.83984 7.55469C5.87891 7.73698 5.93099 7.89323 5.99609 8.02344C6.07422 8.15365 6.15885 8.26432 6.25 8.35547C6.30208 9.00651 6.47786 9.54036 6.77734 9.95703C7.07682 10.3607 7.31771 10.6406 7.5 10.7969V12.7891C7.33073 12.8542 7.15495 12.9193 6.97266 12.9844C6.80339 13.0495 6.63411 13.1146 6.46484 13.1797C5.7487 13.4401 5.07812 13.694 4.45312 13.9414C3.84115 14.1758 3.29427 14.4102 2.8125 14.6445C2.33073 14.8789 1.92708 15.1263 1.60156 15.3867C1.27604 15.6471 1.03516 15.9271 0.878906 16.2266C0.449219 17.099 0.195312 17.9062 0.117188 18.6484C0.0390625 19.3776 0 19.7617 0 19.8008C0 19.918 0.0390625 20.0156 0.117188 20.0938C0.208333 20.1719 0.30599 20.2109 0.410156 20.2109H19.5898C19.694 20.2109 19.7852 20.1719 19.8633 20.0938C19.9544 20.0156 20 19.918 20 19.8008C20 19.7617 19.9609 19.3776 19.8828 18.6484C19.8047 17.9062 19.5508 17.099 19.1211 16.2266Z"
        fill="#00677F" />
</svg>